HIERARCHY
ROOT Hips
{
	OFFSET -0.001795 -0.223333 0.028219
	CHANNELS 6 Xposition Yposition Zposition Zrotation Yrotation Xrotation 
	JOINT LeftUpLeg
	{
		OFFSET 0.069520 -0.091406 -0.006815
		CHANNELS 3 Zrotation Yrotation Xrotation
		JOINT LeftLeg
		{
			OFFSET 0.034277 -0.375199 -0.004496
			CHANNELS 3 Zrotation Yrotation Xrotation
			JOINT LeftFoot
			{
				OFFSET -0.013596 -0.397961 -0.043693
				CHANNELS 3 Zrotation Yrotation Xrotation
				JOINT LeftToe
				{
					OFFSET 0.026358 -0.055791 0.119288
					CHANNELS 3 Zrotation Yrotation Xrotation
					End Site
					{
						OFFSET 0.000000 0.000000 0.000000
					}
				}
			}
		}
	}
	JOINT RightUpLeg
	{
		OFFSET -0.067670 -0.090522 -0.004320
		CHANNELS 3 Zrotation Yrotation Xrotation
		JOINT RightLeg
		{
			OFFSET -0.038290 -0.382569 -0.008850
			CHANNELS 3 Zrotation Yrotation Xrotation
			JOINT RightFoot
			{
				OFFSET 0.015774 -0.398415 -0.042312
				CHANNELS 3 Zrotation Yrotation Xrotation
				JOINT RightToe
				{
					OFFSET -0.025372 -0.048144 0.123348
					CHANNELS 3 Zrotation Yrotation Xrotation
					End Site
					{
						OFFSET 0.000000 0.000000 0.000000
					}
				}
			}
		}
	}
	JOINT Spine
	{
		OFFSET -0.002533 0.108963 -0.026696
		CHANNELS 3 Zrotation Yrotation Xrotation
		JOINT Spine1
		{
			OFFSET 0.005487 0.135180 0.001092
			CHANNELS 3 Zrotation Yrotation Xrotation
			JOINT Spine2
			{
				OFFSET 0.001457 0.052922 0.025425
				CHANNELS 3 Zrotation Yrotation Xrotation
				JOINT Neck
				{
					OFFSET -0.002778 0.213870 -0.042857
					CHANNELS 3 Zrotation Yrotation Xrotation
					JOINT Head
					{
						OFFSET 0.005152 0.064970 0.051349
						CHANNELS 3 Zrotation Yrotation Xrotation
						End Site
						{
							OFFSET 0.000000 0.000000 0.000000
						}
					}
				}
				JOINT LeftShoulder
				{
					OFFSET 0.078845 0.121749 -0.034090
					CHANNELS 3 Zrotation Yrotation Xrotation
					JOINT LeftArm
					{
						OFFSET 0.090977 0.030469 -0.008868
						CHANNELS 3 Zrotation Yrotation Xrotation
						JOINT LeftForeArm
						{
							OFFSET 0.259612 -0.012772 -0.027456
							CHANNELS 3 Zrotation Yrotation Xrotation
							JOINT LeftHand
							{
								OFFSET 0.249234 0.008986 -0.001171
								CHANNELS 3 Zrotation Yrotation Xrotation
								End Site
								{
									OFFSET 0.000000 0.000000 0.000000
								}
							}
						}
					}
				}
				JOINT RightShoulder
				{
					OFFSET -0.081759 0.118833 -0.038615
					CHANNELS 3 Zrotation Yrotation Xrotation
					JOINT RightArm
					{
						OFFSET -0.096012 0.032551 -0.009143
						CHANNELS 3 Zrotation Yrotation Xrotation
						JOINT RightForeArm
						{
							OFFSET -0.253742 -0.013329 -0.021401
							CHANNELS 3 Zrotation Yrotation Xrotation
							JOINT RightHand
							{
								OFFSET -0.255298 0.007772 -0.005559
								CHANNELS 3 Zrotation Yrotation Xrotation
								End Site
								{
									OFFSET 0.000000 0.000000 0.000000
								}
							}
						}
					}
				}
			}
		}
	}
}
MOTION
Frames: 17
Frame Time: 0.050000
-0.004564 0.558773 0.020062 -1.968381 -18.099334 33.853266 20.209302 2.015217 54.205694 -30.044417 -8.756476 -78.951619 35.773243 25.677068 105.750719 0.000000 0.000000 0.000000 -15.468202 10.110229 48.118296 17.450342 12.334578 -77.518117 -76.255120 -33.363616 109.631176 0.000000 0.000000 0.000000 8.056710 7.735907 -38.698642 -16.776266 2.106227 -111.966938 -5.328542 -19.705571 133.327655 -40.715463 5.867272 -112.606667 0.000000 0.000000 0.000000 -25.033576 17.768781 -2.661036 -44.272226 -1.532643 -38.773119 89.214137 52.387736 77.247714 0.000000 0.000000 0.000000 -15.152463 -27.168253 -24.565085 38.254629 -42.015550 -44.829897 -53.941945 5.998146 -3.213258 0.000000 0.000000 0.000000 
-0.003501 0.556743 0.019856 -1.754515 -17.502264 33.315934 20.440756 1.638087 54.246742 -29.417223 -8.697145 -79.288380 36.983698 25.217749 108.670641 0.000000 0.000000 0.000000 -16.246796 10.351451 48.194550 19.435352 13.052039 -76.538137 -77.584585 -33.501734 110.092076 0.000000 0.000000 0.000000 7.886571 7.704690 -39.345130 -16.879136 1.484987 -112.480600 -5.194149 -19.984155 134.908667 -43.572400 6.105808 -112.129894 0.000000 0.000000 0.000000 -24.003826 17.701195 -3.595698 -43.094655 -0.316123 -39.568844 88.734229 47.340621 68.892062 0.000000 0.000000 0.000000 -16.479342 -26.953844 -24.796241 38.353925 -43.242379 -47.094109 -55.591651 9.805348 -4.952930 0.000000 0.000000 0.000000 
-0.002403 0.555841 0.019698 -1.969238 -17.706484 32.986208 19.984776 2.020267 54.819017 -28.348992 -8.216969 -79.978603 37.108495 24.880811 110.248510 0.000000 0.000000 0.000000 -17.298521 11.018977 47.731894 21.003892 13.954952 -76.229766 -80.375987 -32.843257 112.343386 0.000000 0.000000 0.000000 8.813235 7.778089 -38.591929 -16.720946 2.025416 -113.415519 -4.916836 -20.002666 135.000703 -45.264480 6.311599 -111.512379 0.000000 0.000000 0.000000 -23.423912 17.842368 -3.851456 -42.064748 1.043534 -39.337955 89.215855 43.178674 63.339038 0.000000 0.000000 0.000000 -18.443182 -26.910451 -24.773597 36.681405 -43.885192 -45.066015 -57.003708 10.020901 -5.741509 0.000000 0.000000 0.000000 
-0.001896 0.554692 0.019833 -2.144823 -17.951613 32.685735 19.469273 2.375402 54.883444 -27.544429 -7.683038 -80.069295 39.636973 24.845881 112.184961 0.000000 0.000000 0.000000 -18.439443 11.616128 46.793123 22.661271 14.476825 -74.086835 -80.844708 -32.807864 112.362872 0.000000 0.000000 0.000000 9.414030 8.206133 -39.279766 -16.207526 2.467458 -111.389526 -3.912078 -19.521365 133.945125 -46.616709 6.114244 -111.543642 0.000000 0.000000 0.000000 -24.102275 18.027892 -3.586918 -40.759028 1.201881 -39.513594 89.832309 40.268560 59.213580 0.000000 0.000000 0.000000 -19.359967 -26.794589 -24.636223 34.993165 -43.394937 -43.596089 -58.986209 9.296983 -5.967226 0.000000 0.000000 0.000000 
-0.002716 0.554697 0.020701 -2.033268 -17.786016 32.555743 19.172330 2.409103 54.661924 -26.841079 -7.219872 -79.772736 39.693262 24.924414 112.237843 0.000000 0.000000 0.000000 -18.298193 11.300861 46.240502 22.394869 14.198891 -73.401428 -82.681566 -32.172682 113.729370 0.000000 0.000000 0.000000 9.465663 8.543544 -40.454025 -16.483455 1.945798 -110.364498 -3.426663 -19.848994 134.374585 -48.490883 6.241098 -111.385328 0.000000 0.000000 0.000000 -25.108490 18.551643 -3.570143 -40.793005 0.895141 -40.970896 91.025205 37.276043 57.787617 0.000000 0.000000 0.000000 -20.387620 -26.604765 -24.769162 33.622411 -44.043915 -43.810215 -60.572143 9.982975 -7.283912 0.000000 0.000000 0.000000 
-0.004873 0.554648 0.022370 -1.828325 -18.329527 32.243744 18.715463 2.872135 54.936603 -26.413904 -6.787148 -79.219591 37.950675 24.899910 111.805859 0.000000 0.000000 0.000000 -18.426884 11.612513 46.320423 21.956865 13.968523 -73.045945 -82.490128 -32.044390 113.611654 0.000000 0.000000 0.000000 9.899370 9.123658 -41.357378 -17.445741 1.386646 -109.563244 -2.143618 -20.765015 134.192066 -47.280839 6.276627 -110.790650 0.000000 0.000000 0.000000 -26.690089 18.225159 -2.347330 -40.486390 -0.576945 -41.349231 93.562321 38.102289 59.821398 0.000000 0.000000 0.000000 -21.956563 -26.456854 -24.610941 31.620559 -45.625024 -43.463575 -61.455851 10.179050 -8.584267 0.000000 0.000000 0.000000 
-0.007802 0.555708 0.023882 -1.252775 -17.763776 31.778703 19.135419 2.336953 54.426384 -26.536275 -6.813144 -77.994486 37.255966 24.957778 111.487928 0.000000 0.000000 0.000000 -17.584813 10.922507 46.831839 21.427142 13.421716 -72.471953 -82.956493 -32.704871 112.608756 0.000000 0.000000 0.000000 9.582821 9.389735 -42.975639 -18.867561 -0.175545 -107.223924 -1.198581 -21.834787 133.567700 -47.529818 6.154828 -110.836717 0.000000 0.000000 0.000000 -29.424553 18.598073 -1.036561 -40.685672 -4.097050 -42.094954 97.554524 39.470821 66.562812 0.000000 0.000000 0.000000 -22.622574 -26.184602 -24.340099 30.267510 -46.577374 -44.295673 -62.669501 10.134156 -9.813036 0.000000 0.000000 0.000000 
-0.010805 0.555769 0.024098 -0.943268 -18.396947 31.467494 18.779900 2.790464 54.715697 -26.787803 -6.761517 -77.420089 37.259245 25.307754 110.319847 0.000000 0.000000 0.000000 -17.573412 11.250240 47.194773 20.384566 12.951048 -72.729773 -81.902201 -32.210639 112.807946 0.000000 0.000000 0.000000 9.828084 9.584378 -42.820501 -19.455421 -0.033602 -106.116614 0.004955 -22.238156 131.120520 -44.035931 6.437458 -108.798575 0.000000 0.000000 0.000000 -30.293740 17.744203 0.711558 -41.164041 -6.867456 -39.775103 101.117964 44.091214 77.058533 0.000000 0.000000 0.000000 -24.258916 -26.180320 -23.757820 30.007857 -47.487145 -42.274932 -65.184569 7.665535 -8.758528 0.000000 0.000000 0.000000 
-0.013303 0.556169 0.022452 -0.367242 -18.714857 31.373320 18.589185 2.907899 54.326449 -27.428375 -6.953444 -76.964637 38.566996 25.553052 110.320102 0.000000 0.000000 0.000000 -17.456348 11.296794 47.342183 19.404739 12.462595 -73.057305 -81.761257 -32.228771 112.607337 0.000000 0.000000 0.000000 9.323142 9.371283 -42.551398 -18.678850 0.664799 -104.772215 -0.061660 -21.124876 128.936843 -41.825740 6.439840 -107.989728 0.000000 0.000000 0.000000 -30.974977 17.348330 1.611520 -41.687356 -10.104210 -37.445035 103.736192 48.037653 87.294088 0.000000 0.000000 0.000000 -23.911189 -25.578205 -22.609269 30.683439 -46.135187 -40.672093 -67.611931 3.237990 -6.403376 0.000000 0.000000 0.000000 
-0.015302 0.556339 0.019101 0.084665 -19.215383 31.880650 17.833465 3.312366 53.565683 -27.814917 -6.840178 -76.577747 39.501118 26.266655 108.161107 0.000000 0.000000 0.000000 -17.843563 11.420779 46.143216 18.654202 12.260129 -73.335397 -84.281392 -31.478015 114.394402 0.000000 0.000000 0.000000 8.849024 9.176469 -42.122435 -15.881314 2.398254 -105.547066 -1.640745 -18.123105 129.199906 -39.300155 6.619610 -107.511350 0.000000 0.000000 0.000000 -31.412944 16.459538 2.086518 -41.385542 -11.835037 -36.480372 103.547127 51.804696 91.636715 0.000000 0.000000 0.000000 -23.527275 -24.875621 -22.558499 31.690213 -44.366452 -39.970303 -69.219020 -0.264933 -3.733016 0.000000 0.000000 0.000000 
-0.017020 0.556211 0.015435 0.322001 -19.489943 32.353115 17.114036 3.625295 52.894074 -27.765678 -6.617122 -76.653156 41.450523 26.977353 106.800086 0.000000 0.000000 0.000000 -17.975425 11.436294 45.497316 18.021617 12.017442 -73.620307 -84.597089 -31.153520 114.891853 0.000000 0.000000 0.000000 9.370728 8.766262 -40.331661 -14.623541 3.687734 -109.463865 -3.141987 -16.392207 131.496836 -37.027155 6.684405 -107.736971 0.000000 0.000000 0.000000 -30.578419 16.079204 1.466947 -40.026314 -11.789042 -35.795077 98.514209 53.769187 85.831488 0.000000 0.000000 0.000000 -22.639341 -23.909575 -22.173800 32.122254 -43.096592 -39.965003 -68.238980 -1.624025 -2.593967 0.000000 0.000000 0.000000 
-0.018894 0.556515 0.012628 0.683115 -19.655769 32.733210 16.466754 3.842232 52.216436 -27.553314 -6.427764 -77.200872 43.677344 27.180689 107.583234 0.000000 0.000000 0.000000 -18.342352 11.429417 44.441466 18.521705 12.382583 -73.375996 -88.391977 -31.833653 115.044483 0.000000 0.000000 0.000000 9.829757 8.742326 -39.804891 -14.045560 4.018052 -113.760309 -3.863263 -15.355259 135.853266 -34.569560 6.660676 -107.955183 0.000000 0.000000 0.000000 -29.983827 14.970980 1.061129 -38.681215 -10.922077 -37.050406 92.077725 54.564684 76.390822 0.000000 0.000000 0.000000 -22.238438 -23.092437 -22.586404 32.676432 -42.967036 -42.865850 -66.534722 1.770467 -4.088969 0.000000 0.000000 0.000000 
-0.020954 0.555782 0.010811 1.049374 -18.861335 33.059472 16.748057 3.348319 51.880620 -27.803663 -6.765031 -77.114216 42.796381 27.825023 104.130657 0.000000 0.000000 0.000000 -18.217285 11.086806 44.660954 18.798700 12.410205 -74.105071 -87.502890 -31.279755 115.878263 0.000000 0.000000 0.000000 10.200997 8.315475 -38.951528 -12.675853 4.960153 -116.454172 -4.802204 -13.843374 137.476229 -34.961640 6.642990 -108.842671 0.000000 0.000000 0.000000 -28.745261 14.212848 0.623504 -37.208933 -9.163874 -36.343398 88.023841 56.313466 69.858530 0.000000 0.000000 0.000000 -21.925406 -22.344260 -22.415701 33.161935 -41.510203 -42.592057 -65.935767 1.529113 -3.135715 0.000000 0.000000 0.000000 
-0.023237 0.555178 0.009743 1.229924 -18.119494 33.026589 17.223083 2.878861 52.084655 -27.982819 -7.282162 -77.860768 44.240359 28.118117 103.655982 0.000000 0.000000 0.000000 -18.007955 10.775932 45.202320 19.231652 12.447454 -74.365585 -85.828056 -30.934075 116.130489 0.000000 0.000000 0.000000 10.010701 7.518044 -37.227761 -10.228958 6.753119 -119.239780 -5.456254 -11.512773 138.030429 -31.771066 6.409289 -109.019805 0.000000 0.000000 0.000000 -25.814304 13.886323 -0.730632 -36.502757 -5.947930 -35.320024 86.236579 56.408395 65.360774 0.000000 0.000000 0.000000 -21.465843 -21.774509 -22.016654 33.477630 -40.115677 -40.956508 -65.455031 1.034033 -1.586086 0.000000 0.000000 0.000000 
-0.025865 0.553908 0.008656 1.533216 -17.691775 33.327919 17.687982 2.415947 51.549531 -28.409748 -7.417861 -76.948970 41.817673 28.380132 100.652182 0.000000 0.000000 0.000000 -18.029732 10.629029 45.199940 19.713799 12.692336 -74.744287 -86.161499 -30.900664 116.435913 0.000000 0.000000 0.000000 9.446915 7.204800 -36.998025 -8.131672 8.084862 -120.594770 -6.393038 -10.333416 139.369212 -32.126650 6.525065 -109.483981 0.000000 0.000000 0.000000 -24.501506 13.307526 -1.287738 -35.054006 -3.378351 -34.808863 85.769004 56.852053 60.778303 0.000000 0.000000 0.000000 -22.228448 -21.572252 -22.566397 34.663230 -38.144517 -40.529447 -66.749728 0.262520 -0.043615 0.000000 0.000000 0.000000 
-0.028926 0.552599 0.007527 2.028252 -16.867334 33.341470 18.462636 1.621858 50.751569 -28.734336 -7.615778 -76.101616 41.158736 28.329704 100.137244 0.000000 0.000000 0.000000 -17.553241 9.980126 45.163049 20.346497 12.923599 -74.840426 -90.257247 -31.597620 116.751927 0.000000 0.000000 0.000000 7.903468 6.238530 -35.529798 -3.236832 11.697726 -123.988428 -8.046617 -5.290046 140.136259 -29.469336 6.565409 -108.920340 0.000000 0.000000 0.000000 -21.431685 12.910033 -2.511316 -34.048039 0.667436 -33.804176 84.743821 55.615856 55.703981 0.000000 0.000000 0.000000 -21.952286 -20.451568 -22.156417 35.536319 -36.007578 -38.599107 -68.121937 -2.269624 3.452773 0.000000 0.000000 0.000000 
-0.031903 0.551603 0.006492 2.209727 -16.458856 33.535496 18.980996 1.202731 50.470115 -28.775159 -7.622376 -75.594070 38.094459 28.073556 97.981125 0.000000 0.000000 0.000000 -17.076319 9.582781 45.377633 20.492800 13.001047 -75.074885 -90.783913 -32.361070 115.963891 0.000000 0.000000 0.000000 7.084713 5.700341 -34.412498 -0.781977 13.614088 -125.066330 -8.455522 -3.566227 140.225488 -28.951262 6.422943 -109.213355 0.000000 0.000000 0.000000 -19.866121 12.459763 -2.869307 -33.186773 3.841459 -33.536424 81.546505 54.548520 50.068057 0.000000 0.000000 0.000000 -21.558424 -20.539096 -22.283385 37.999183 -34.078507 -38.719385 -71.582641 -4.728571 7.810221 0.000000 0.000000 0.000000 
